<svg width="128" height="128" viewBox="0 0 128 128" fill="none" xmlns="http://www.w3.org/2000/svg">
  <!-- Modern gradient background -->
  <defs>
    <linearGradient id="bgGradient" x1="0%" y1="0%" x2="100%" y2="100%">
      <stop offset="0%" style="stop-color:#3B82F6;stop-opacity:1" />
      <stop offset="100%" style="stop-color:#8B5CF6;stop-opacity:1" />
    </linearGradient>
    <linearGradient id="iconGradient" x1="0%" y1="0%" x2="100%" y2="100%">
      <stop offset="0%" style="stop-color:#FFFFFF;stop-opacity:1" />
      <stop offset="100%" style="stop-color:#E0E7FF;stop-opacity:1" />
    </linearGradient>
  </defs>
  
  <!-- Rounded square background -->
  <rect width="128" height="128" rx="24" fill="url(#bgGradient)"/>
  
  <!-- Accessibility icon - stylized person with arms raised -->
  <circle cx="64" cy="42" r="12" fill="url(#iconGradient)"/>
  
  <!-- Body and arms forming "A" for Accessibility -->
  <path d="M 44 58 Q 44 52 50 52 L 78 52 Q 84 52 84 58 L 84 68 Q 84 74 78 74 L 74 74 L 74 96 Q 74 100 70 100 L 58 100 Q 54 100 54 96 L 54 74 L 50 74 Q 44 74 44 68 Z" fill="url(#iconGradient)"/>
  
  <!-- Abstract connection lines (representing adaptive technology) -->
  <circle cx="34" cy="64" r="4" fill="#60A5FA" opacity="0.8"/>
  <circle cx="94" cy="64" r="4" fill="#60A5FA" opacity="0.8"/>
  <line x1="38" y1="64" x2="54" y2="64" stroke="#60A5FA" stroke-width="2" opacity="0.6"/>
  <line x1="74" y1="64" x2="90" y2="64" stroke="#60A5FA" stroke-width="2" opacity="0.6"/>
</svg>
